<svg xmlns="http://www.w3.org/2000/svg" viewBox="0 0 256 256" width="256" height="256">
  <g fill="none" stroke="#333" stroke-width="5" stroke-linecap="round" stroke-linejoin="round">
    <!-- Stem -->
    <path d="M128 150 C126 170, 122 190, 118 210 C115 225, 120 238, 124 248" />

    <!-- Center circle -->
    <circle cx="128" cy="120" r="16" fill="#333" stroke="none" />

    <!-- Seed stalks radiating from center -->
    <!-- Top -->
    <line x1="128" y1="104" x2="128" y2="72" />
    <!-- Top-right 1 -->
    <line x1="139" y1="107" x2="158" y2="78" />
    <!-- Right -->
    <line x1="144" y1="116" x2="176" y2="100" />
    <!-- Bottom-right -->
    <line x1="142" y1="130" x2="170" y2="148" />
    <!-- Bottom-left -->
    <line x1="114" y1="130" x2="86" y2="148" />
    <!-- Left -->
    <line x1="112" y1="116" x2="80" y2="100" />
    <!-- Top-left 1 -->
    <line x1="117" y1="107" x2="98" y2="78" />
    <!-- Top-right 2 -->
    <line x1="144" y1="112" x2="172" y2="88" />
    <!-- Top-left 2 -->
    <line x1="112" y1="112" x2="84" y2="88" />

    <!-- Seed heads (Y-shaped bristles) -->
    <!-- Top -->
    <path d="M128 72 L122 58 M128 72 L128 56 M128 72 L134 58" />
    <!-- Top-right 1 -->
    <path d="M158 78 L156 62 M158 78 L164 64 M158 78 L168 74" />
    <!-- Right -->
    <path d="M176 100 L180 86 M176 100 L188 96 M176 100 L184 110" />
    <!-- Bottom-right -->
    <path d="M170 148 L178 140 M170 148 L182 152 M170 148 L174 160" />
    <!-- Bottom-left -->
    <path d="M86 148 L78 140 M86 148 L74 152 M86 148 L82 160" />
    <!-- Left -->
    <path d="M80 100 L76 86 M80 100 L68 96 M80 100 L72 110" />
    <!-- Top-left 1 -->
    <path d="M98 78 L100 62 M98 78 L92 64 M98 78 L88 74" />
    <!-- Top-right 2 -->
    <path d="M172 88 L174 74 M172 88 L184 82 M172 88 L180 98" />
    <!-- Top-left 2 -->
    <path d="M84 88 L82 74 M84 88 L72 82 M84 88 L76 98" />

    <!-- Flying seeds (detached, top-right) -->
    <!-- Seed 1 -->
    <g transform="translate(178, 42) rotate(20)">
      <line x1="0" y1="0" x2="0" y2="12" />
      <path d="M0 0 L-5 -8 M0 0 L0 -10 M0 0 L5 -8" />
    </g>
    <!-- Seed 2 -->
    <g transform="translate(200, 28) rotate(35)">
      <line x1="0" y1="0" x2="0" y2="10" />
      <path d="M0 0 L-4 -7 M0 0 L0 -9 M0 0 L4 -7" />
    </g>
  </g>
</svg>
